<svg xmlns="http://www.w3.org/2000/svg" style="display: none;">
  <defs>
    <symbol id="katakana-project" viewBox="0 0 751 136">
      <path d="M8.792 21.656C10.4987 21.8267 12.504 21.9973 14.808 22.168C17.112 22.3387 19.16 22.424 20.952 22.424H90.584C92.5467 22.424 94.5947 22.3387 96.728 22.168C98.8613 21.9973 100.824 21.8267 102.616 21.656V39.192C100.739 39.0213 98.7333 38.8933 96.6 38.808C94.4667 38.7227 92.4613 38.68 90.584 38.68H20.952C19.2453 38.68 17.1973 38.7227 14.808 38.808C12.4187 38.8933 10.4133 39.0213 8.792 39.192V21.656ZM45.656 100.376V31.512H63.576V100.376H45.656ZM0.472 89.88C2.52 90.2213 4.65333 90.4773 6.872 90.648C9.09067 90.8187 11.1813 90.904 13.144 90.904H97.496C99.8 90.904 101.976 90.8187 104.024 90.648C106.072 90.392 107.907 90.136 109.528 89.88V108.44C107.651 108.184 105.56 108.013 103.256 107.928C100.952 107.843 99.032 107.8 97.496 107.8H13.144C11.2667 107.8 9.21867 107.843 7 107.928C4.78133 108.013 2.60533 108.184 0.472 108.44V89.88ZM218.072 6.296C219.181 7.832 220.333 9.66666 221.528 11.8C222.808 13.9333 224.045 16.0667 225.24 18.2C226.435 20.3333 227.416 22.2107 228.184 23.832L217.944 28.312C216.579 25.6667 214.957 22.68 213.08 19.352C211.288 15.9387 209.539 12.9947 207.832 10.52L218.072 6.296ZM233.176 0.535995C234.285 2.15733 235.48 4.07733 236.76 6.296C238.04 8.42933 239.277 10.5627 240.472 12.696C241.752 14.744 242.776 16.4933 243.544 17.944L233.304 22.296C232.024 19.6507 230.403 16.664 228.44 13.336C226.563 10.008 224.771 7.14933 223.064 4.75999L233.176 0.535995ZM153.304 96.408C153.304 94.616 153.304 92.056 153.304 88.728C153.304 85.3147 153.304 81.4747 153.304 77.208C153.304 72.9413 153.304 68.4613 153.304 63.768C153.304 58.9893 153.304 54.296 153.304 49.688C153.304 45.08 153.304 40.8133 153.304 36.888C153.304 32.9627 153.304 29.72 153.304 27.16C153.304 25.7093 153.261 24.088 153.176 22.296C153.091 20.504 152.963 18.712 152.792 16.92C152.707 15.128 152.536 13.6347 152.28 12.44H171.352C171.011 14.3173 170.712 16.7067 170.456 19.608C170.285 22.424 170.2 24.9413 170.2 27.16C170.2 29.6347 170.2 32.664 170.2 36.248C170.2 39.7467 170.2 43.544 170.2 47.64C170.2 51.6507 170.2 55.7893 170.2 60.056C170.2 64.2373 170.2 68.3333 170.2 72.344C170.2 76.2693 170.2 79.896 170.2 83.224C170.2 86.552 170.2 89.4533 170.2 91.928C170.2 94.488 170.584 96.5787 171.352 98.2C172.12 99.8213 173.656 100.973 175.96 101.656C178.349 102.339 181.848 102.68 186.456 102.68C190.979 102.68 195.501 102.509 200.024 102.168C204.632 101.827 209.197 101.315 213.72 100.632C218.328 99.9493 222.723 99.224 226.904 98.456L226.392 115.736C222.893 116.248 218.925 116.717 214.488 117.144C210.051 117.571 205.443 117.912 200.664 118.168C195.885 118.424 191.192 118.552 186.584 118.552C179.331 118.552 173.485 118.083 169.048 117.144C164.611 116.291 161.24 114.968 158.936 113.176C156.717 111.384 155.224 109.08 154.456 106.264C153.688 103.448 153.304 100.163 153.304 96.408ZM233.816 40.216C233.304 41.0693 232.621 42.1787 231.768 43.544C231 44.824 230.317 46.0187 229.72 47.128C228.269 49.7733 226.52 52.76 224.472 56.088C222.424 59.416 220.205 62.8293 217.816 66.328C215.427 69.8267 212.952 73.1547 210.392 76.312C207.917 79.4693 205.528 82.1573 203.224 84.376L189.144 76.056C191.96 73.5813 194.691 70.7653 197.336 67.608C200.067 64.3653 202.499 61.208 204.632 58.136C206.765 55.064 208.387 52.4187 209.496 50.2C208.387 50.3707 206.339 50.7973 203.352 51.48C200.365 52.0773 196.739 52.8027 192.472 53.656C188.291 54.5093 183.683 55.448 178.648 56.472C173.613 57.4107 168.536 58.392 163.416 59.416C158.296 60.44 153.347 61.464 148.568 62.488C143.789 63.4267 139.48 64.3227 135.64 65.176C131.8 65.944 128.728 66.584 126.424 67.096L123.224 50.328C125.784 49.9867 129.027 49.5173 132.952 48.92C136.963 48.2373 141.443 47.4693 146.392 46.616C151.427 45.7627 156.632 44.824 162.008 43.8C167.384 42.6907 172.675 41.6667 177.88 40.728C183.171 39.704 188.12 38.7227 192.728 37.784C197.421 36.8453 201.475 36.0347 204.888 35.352C208.301 34.584 210.819 34.0293 212.44 33.688C214.317 33.176 216.024 32.7067 217.56 32.28C219.096 31.8533 220.419 31.2987 221.528 30.616L233.816 40.216ZM293.592 19.608C293.251 17.7307 292.824 16.024 292.312 14.488C291.885 12.952 291.459 11.416 291.032 9.88L309.08 6.936C309.251 8.216 309.421 9.83733 309.592 11.8C309.848 13.6773 310.147 15.384 310.488 16.92C310.659 18.1147 311.043 20.3333 311.64 23.576C312.237 26.8187 312.963 30.744 313.816 35.352C314.669 39.96 315.608 44.952 316.632 50.328C317.741 55.6187 318.808 60.9947 319.832 66.456C320.856 71.832 321.837 76.952 322.776 81.816C323.8 86.68 324.653 90.9893 325.336 94.744C326.104 98.4987 326.659 101.272 327 103.064C327.427 104.941 327.939 106.989 328.536 109.208C329.133 111.427 329.731 113.56 330.328 115.608L311.768 118.936C311.427 116.547 311.171 114.243 311 112.024C310.829 109.891 310.531 107.885 310.104 106.008C309.763 104.301 309.251 101.699 308.568 98.2C307.971 94.616 307.203 90.4347 306.264 85.656C305.411 80.8773 304.472 75.8 303.448 70.424C302.424 65.048 301.4 59.672 300.376 54.296C299.352 48.92 298.371 43.8853 297.432 39.192C296.579 34.4987 295.811 30.4453 295.128 27.032C294.445 23.5333 293.933 21.0587 293.592 19.608ZM258.648 35.864C260.696 35.7787 262.701 35.6933 264.664 35.608C266.627 35.4373 268.589 35.224 270.552 34.968C272.429 34.712 275.075 34.3707 278.488 33.944C281.901 33.432 285.827 32.8773 290.264 32.28C294.701 31.5973 299.267 30.872 303.96 30.104C308.739 29.336 313.347 28.6107 317.784 27.928C322.221 27.16 326.147 26.4773 329.56 25.88C333.059 25.2827 335.789 24.8133 337.752 24.472C339.8 24.0453 341.933 23.6187 344.152 23.192C346.371 22.68 348.248 22.2107 349.784 21.784L352.856 38.552C351.491 38.6373 349.656 38.8507 347.352 39.192C345.048 39.5333 342.957 39.832 341.08 40.088C338.776 40.4293 335.747 40.8987 331.992 41.496C328.323 42.0933 324.227 42.776 319.704 43.544C315.181 44.2267 310.573 44.952 305.88 45.72C301.187 46.4027 296.707 47.128 292.44 47.896C288.173 48.5787 284.419 49.176 281.176 49.688C277.933 50.2 275.501 50.584 273.88 50.84C271.832 51.2667 269.912 51.6933 268.12 52.12C266.328 52.4613 264.323 52.9307 262.104 53.528L258.648 35.864ZM258.776 73.496C260.483 73.4107 262.616 73.24 265.176 72.984C267.821 72.6427 270.125 72.344 272.088 72.088C274.392 71.7467 277.464 71.2773 281.304 70.68C285.144 70.0827 289.453 69.4 294.232 68.632C299.096 67.864 304.088 67.096 309.208 66.328C314.328 65.4747 319.32 64.6213 324.184 63.768C329.048 62.9147 333.485 62.1467 337.496 61.464C341.507 60.7813 344.749 60.2267 347.224 59.8C349.699 59.288 352.045 58.776 354.264 58.264C356.568 57.752 358.573 57.24 360.28 56.728L363.736 73.624C362.029 73.7093 359.939 73.9653 357.464 74.392C355.075 74.7333 352.643 75.1173 350.168 75.544C347.437 75.9707 344.024 76.5253 339.928 77.208C335.832 77.8907 331.309 78.6587 326.36 79.512C321.496 80.28 316.504 81.0907 311.384 81.944C306.264 82.712 301.357 83.5227 296.664 84.376C291.971 85.144 287.747 85.8267 283.992 86.424C280.237 87.0213 277.293 87.5333 275.16 87.96C272.429 88.472 269.955 88.9413 267.736 89.368C265.603 89.7947 263.811 90.2213 262.36 90.648L258.776 73.496ZM392.792 21.656C394.499 21.8267 396.504 21.9973 398.808 22.168C401.112 22.3387 403.16 22.424 404.952 22.424H474.584C476.547 22.424 478.595 22.3387 480.728 22.168C482.861 21.9973 484.824 21.8267 486.616 21.656V39.192C484.739 39.0213 482.733 38.8933 480.6 38.808C478.467 38.7227 476.461 38.68 474.584 38.68H404.952C403.245 38.68 401.197 38.7227 398.808 38.808C396.419 38.8933 394.413 39.0213 392.792 39.192V21.656ZM429.656 100.376V31.512H447.576V100.376H429.656ZM384.472 89.88C386.52 90.2213 388.653 90.4773 390.872 90.648C393.091 90.8187 395.181 90.904 397.144 90.904H481.496C483.8 90.904 485.976 90.8187 488.024 90.648C490.072 90.392 491.907 90.136 493.528 89.88V108.44C491.651 108.184 489.56 108.013 487.256 107.928C484.952 107.843 483.032 107.8 481.496 107.8H397.144C395.267 107.8 393.219 107.843 391 107.928C388.781 108.013 386.605 108.184 384.472 108.44V89.88ZM567.384 108.184C567.64 106.904 567.853 105.453 568.024 103.832C568.28 102.125 568.408 100.419 568.408 98.712C568.408 97.7733 568.408 95.896 568.408 93.08C568.408 90.264 568.408 86.8507 568.408 82.84C568.408 78.8293 568.408 74.52 568.408 69.912C568.408 65.2187 568.408 60.4827 568.408 55.704C568.408 50.9253 568.408 46.4453 568.408 42.264C568.408 37.9973 568.408 34.2853 568.408 31.128C568.408 27.8853 568.408 25.5387 568.408 24.088C568.408 21.1867 568.237 18.6693 567.896 16.536C567.64 14.4027 567.469 13.2507 567.384 13.08H586.456C586.371 13.2507 586.2 14.4453 585.944 16.664C585.688 18.7973 585.56 21.3147 585.56 24.216C585.56 25.6667 585.56 27.8427 585.56 30.744C585.56 33.56 585.56 36.8453 585.56 40.6C585.56 44.2693 585.56 48.1947 585.56 52.376C585.56 56.5573 585.56 60.696 585.56 64.792C585.56 68.8027 585.56 72.6427 585.56 76.312C585.56 79.896 585.56 82.968 585.56 85.528C585.56 88.088 585.56 89.9653 585.56 91.16C589.059 89.624 592.685 87.5333 596.44 84.888C600.195 82.2427 603.864 79.1707 607.448 75.672C611.117 72.088 614.36 68.248 617.176 64.152L627.032 78.232C623.533 82.84 619.267 87.3627 614.232 91.8C609.283 96.2373 604.163 100.291 598.872 103.96C593.581 107.629 588.504 110.701 583.64 113.176C582.275 113.944 581.165 114.627 580.312 115.224C579.459 115.907 578.733 116.504 578.136 117.016L567.384 108.184ZM508.12 106.264C513.752 102.339 518.36 97.6027 521.944 92.056C525.528 86.5093 528.173 81.048 529.88 75.672C530.819 72.856 531.501 69.4 531.928 65.304C532.44 61.1227 532.824 56.6853 533.08 51.992C533.336 47.2133 533.464 42.52 533.464 37.912C533.549 33.2187 533.592 28.9093 533.592 24.984C533.592 22.424 533.464 20.248 533.208 18.456C533.037 16.5787 532.781 14.8293 532.44 13.208H551.256C551.171 13.3787 551.043 14.104 550.872 15.384C550.787 16.5787 550.659 18.0293 550.488 19.736C550.403 21.3573 550.36 23.064 550.36 24.856C550.36 28.6107 550.317 33.0053 550.232 38.04C550.147 42.9893 549.976 48.0667 549.72 53.272C549.464 58.4773 549.08 63.4267 548.568 68.12C548.056 72.728 547.373 76.6533 546.52 79.896C544.557 87.1493 541.613 93.8907 537.688 100.12C533.848 106.264 529.197 111.768 523.736 116.632L508.12 106.264ZM676.753 20.248C679.398 20.3333 681.873 20.4187 684.177 20.504C686.566 20.504 688.614 20.504 690.321 20.504C691.686 20.504 693.777 20.504 696.593 20.504C699.494 20.504 702.865 20.504 706.705 20.504C710.545 20.504 714.641 20.504 718.993 20.504C723.345 20.504 727.697 20.504 732.049 20.504C736.486 20.504 740.625 20.504 744.465 20.504C748.305 20.504 751.633 20.504 754.449 20.504C757.35 20.504 759.441 20.504 760.721 20.504C762.342 20.504 764.262 20.504 766.481 20.504C768.785 20.4187 771.089 20.3333 773.393 20.248C773.308 22.2107 773.222 24.3013 773.137 26.52C773.137 28.6533 773.137 30.7013 773.137 32.664C773.137 33.8587 773.137 35.736 773.137 38.296C773.137 40.7707 773.137 43.7573 773.137 47.256C773.137 50.6693 773.137 54.3387 773.137 58.264C773.137 62.104 773.137 65.9867 773.137 69.912C773.137 73.8373 773.137 77.5493 773.137 81.048C773.137 84.4613 773.137 87.448 773.137 90.008C773.137 92.4827 773.137 94.2747 773.137 95.384C773.137 96.664 773.137 98.2853 773.137 100.248C773.222 102.125 773.265 104.045 773.265 106.008C773.265 107.885 773.265 109.549 773.265 111C773.35 112.365 773.393 113.091 773.393 113.176H755.729C755.729 113.005 755.729 111.981 755.729 110.104C755.814 108.141 755.857 105.837 755.857 103.192C755.942 100.547 755.985 98.072 755.985 95.768C755.985 94.6587 755.985 92.7813 755.985 90.136C755.985 87.4907 755.985 84.376 755.985 80.792C755.985 77.208 755.985 73.4107 755.985 69.4C755.985 65.3893 755.985 61.464 755.985 57.624C755.985 53.784 755.985 50.2853 755.985 47.128C755.985 43.9707 755.985 41.4533 755.985 39.576C755.985 37.6987 755.985 36.76 755.985 36.76H694.161C694.161 36.76 694.161 37.6987 694.161 39.576C694.161 41.4533 694.161 43.9707 694.161 47.128C694.161 50.2 694.161 53.6987 694.161 57.624C694.161 61.464 694.161 65.3893 694.161 69.4C694.161 73.3253 694.161 77.1227 694.161 80.792C694.161 84.376 694.161 87.4907 694.161 90.136C694.161 92.7813 694.161 94.6587 694.161 95.768C694.161 97.304 694.161 99.0533 694.161 101.016C694.161 102.893 694.161 104.728 694.161 106.52C694.246 108.312 694.289 109.805 694.289 111C694.289 112.28 694.289 113.005 694.289 113.176H676.625C676.625 113.005 676.625 112.28 676.625 111C676.71 109.72 676.753 108.141 676.753 106.264C676.838 104.387 676.881 102.467 676.881 100.504C676.966 98.5413 677.009 96.792 677.009 95.256C677.009 94.1467 677.009 92.3547 677.009 89.88C677.009 87.32 677.009 84.2907 677.009 80.792C677.009 77.2933 677.009 73.624 677.009 69.784C677.009 65.8587 677.009 61.9333 677.009 58.008C677.009 54.0827 677.009 50.4133 677.009 47C677.009 43.5013 677.009 40.5147 677.009 38.04C677.009 35.5653 677.009 33.7733 677.009 32.664C677.009 30.872 677.009 28.824 677.009 26.52C677.009 24.1307 676.924 22.04 676.753 20.248ZM762.385 89.88V106.264H685.457V89.88H762.385Z"/>
    </symbol>
    <symbol id="katakana-profile" viewBox="0 0 136 766">
      <path d="M26.656 766.208C26.8267 764.501 26.9973 762.496 27.168 760.192C27.3387 757.888 27.424 755.84 27.424 754.048V684.416C27.424 682.453 27.3387 680.405 27.168 678.272C26.9973 676.139 26.8267 674.176 26.656 672.384H44.192C44.0213 674.261 43.8933 676.267 43.808 678.4C43.7227 680.533 43.68 682.539 43.68 684.416V754.048C43.68 755.755 43.7227 757.803 43.808 760.192C43.8933 762.581 44.0213 764.587 44.192 766.208H26.656ZM105.376 729.344H36.512V711.424H105.376V729.344ZM94.88 774.528C95.2213 772.48 95.4773 770.347 95.648 768.128C95.8187 765.909 95.904 763.819 95.904 761.856V677.504C95.904 675.2 95.8187 673.024 95.648 670.976C95.392 668.928 95.136 667.093 94.88 665.472H113.44C113.184 667.349 113.013 669.44 112.928 671.744C112.843 674.048 112.8 675.968 112.8 677.504V761.856C112.8 763.733 112.843 765.781 112.928 768C113.013 770.219 113.184 772.395 113.44 774.528H94.88ZM11.296 556.928C12.832 555.819 14.6667 554.667 16.8 553.472C18.9333 552.192 21.0667 550.955 23.2 549.76C25.3333 548.565 27.2107 547.584 28.832 546.816L33.312 557.056C30.6667 558.421 27.68 560.043 24.352 561.92C20.9387 563.712 17.9947 565.461 15.52 567.168L11.296 556.928ZM5.536 541.824C7.15733 540.715 9.07733 539.52 11.296 538.24C13.4293 536.96 15.5627 535.723 17.696 534.528C19.744 533.248 21.4933 532.224 22.944 531.456L27.296 541.696C24.6507 542.976 21.664 544.597 18.336 546.56C15.008 548.437 12.1493 550.229 9.75999 551.936L5.536 541.824ZM101.408 621.696C99.616 621.696 97.056 621.696 93.728 621.696C90.3147 621.696 86.4747 621.696 82.208 621.696C77.9413 621.696 73.4613 621.696 68.768 621.696C63.9893 621.696 59.296 621.696 54.688 621.696C50.08 621.696 45.8133 621.696 41.888 621.696C37.9627 621.696 34.72 621.696 32.16 621.696C30.7093 621.696 29.088 621.739 27.296 621.824C25.504 621.909 23.712 622.037 21.92 622.208C20.128 622.293 18.6347 622.464 17.44 622.72V603.648C19.3173 603.989 21.7067 604.288 24.608 604.544C27.424 604.715 29.9413 604.8 32.16 604.8C34.6347 604.8 37.664 604.8 41.248 604.8C44.7467 604.8 48.544 604.8 52.64 604.8C56.6507 604.8 60.7893 604.8 65.056 604.8C69.2373 604.8 73.3333 604.8 77.344 604.8C81.2693 604.8 84.896 604.8 88.224 604.8C91.552 604.8 94.4533 604.8 96.928 604.8C99.488 604.8 101.579 604.416 103.2 603.648C104.821 602.88 105.973 601.344 106.656 599.04C107.339 596.651 107.68 593.152 107.68 588.544C107.68 584.021 107.509 579.499 107.168 574.976C106.827 570.368 106.315 565.803 105.632 561.28C104.949 556.672 104.224 552.277 103.456 548.096L120.736 548.608C121.248 552.107 121.717 556.075 122.144 560.512C122.571 564.949 122.912 569.557 123.168 574.336C123.424 579.115 123.552 583.808 123.552 588.416C123.552 595.669 123.083 601.515 122.144 605.952C121.291 610.389 119.968 613.76 118.176 616.064C116.384 618.283 114.08 619.776 111.264 620.544C108.448 621.312 105.163 621.696 101.408 621.696ZM45.216 541.184C46.0693 541.696 47.1787 542.379 48.544 543.232C49.824 544 51.0187 544.683 52.128 545.28C54.7733 546.731 57.76 548.48 61.088 550.528C64.416 552.576 67.8293 554.795 71.328 557.184C74.8267 559.573 78.1547 562.048 81.312 564.608C84.4693 567.083 87.1573 569.472 89.376 571.776L81.056 585.856C78.5813 583.04 75.7653 580.309 72.608 577.664C69.3653 574.933 66.208 572.501 63.136 570.368C60.064 568.235 57.4187 566.613 55.2 565.504C55.3707 566.613 55.7973 568.661 56.48 571.648C57.0773 574.635 57.8027 578.261 58.656 582.528C59.5093 586.709 60.448 591.317 61.472 596.352C62.4107 601.387 63.392 606.464 64.416 611.584C65.44 616.704 66.464 621.653 67.488 626.432C68.4267 631.211 69.3227 635.52 70.176 639.36C70.944 643.2 71.584 646.272 72.096 648.576L55.328 651.776C54.9867 649.216 54.5173 645.973 53.92 642.048C53.2373 638.037 52.4693 633.557 51.616 628.608C50.7627 623.573 49.824 618.368 48.8 612.992C47.6907 607.616 46.6667 602.325 45.728 597.12C44.704 591.829 43.7227 586.88 42.784 582.272C41.8453 577.579 41.0347 573.525 40.352 570.112C39.584 566.699 39.0293 564.181 38.688 562.56C38.176 560.683 37.7067 558.976 37.28 557.44C36.8533 555.904 36.2987 554.581 35.616 553.472L45.216 541.184ZM24.608 481.408C22.7307 481.749 21.024 482.176 19.488 482.688C17.952 483.115 16.416 483.541 14.88 483.968L11.936 465.92C13.216 465.749 14.8373 465.579 16.8 465.408C18.6773 465.152 20.384 464.853 21.92 464.512C23.1147 464.341 25.3333 463.957 28.576 463.36C31.8187 462.763 35.744 462.037 40.352 461.184C44.96 460.331 49.952 459.392 55.328 458.368C60.6187 457.259 65.9947 456.192 71.456 455.168C76.832 454.144 81.952 453.163 86.816 452.224C91.68 451.2 95.9893 450.347 99.744 449.664C103.499 448.896 106.272 448.341 108.064 448C109.941 447.573 111.989 447.061 114.208 446.464C116.427 445.867 118.56 445.269 120.608 444.672L123.936 463.232C121.547 463.573 119.243 463.829 117.024 464C114.891 464.171 112.885 464.469 111.008 464.896C109.301 465.237 106.699 465.749 103.2 466.432C99.616 467.029 95.4347 467.797 90.656 468.736C85.8773 469.589 80.8 470.528 75.424 471.552C70.048 472.576 64.672 473.6 59.296 474.624C53.92 475.648 48.8853 476.629 44.192 477.568C39.4987 478.421 35.4453 479.189 32.032 479.872C28.5333 480.555 26.0587 481.067 24.608 481.408ZM40.864 516.352C40.7787 514.304 40.6933 512.299 40.608 510.336C40.4373 508.373 40.224 506.411 39.968 504.448C39.712 502.571 39.3707 499.925 38.944 496.512C38.432 493.099 37.8773 489.173 37.28 484.736C36.5973 480.299 35.872 475.733 35.104 471.04C34.336 466.261 33.6107 461.653 32.928 457.216C32.16 452.779 31.4773 448.853 30.88 445.44C30.2827 441.941 29.8133 439.211 29.472 437.248C29.0453 435.2 28.6187 433.067 28.192 430.848C27.68 428.629 27.2107 426.752 26.784 425.216L43.552 422.144C43.6373 423.509 43.8507 425.344 44.192 427.648C44.5333 429.952 44.832 432.043 45.088 433.92C45.4293 436.224 45.8987 439.253 46.496 443.008C47.0933 446.677 47.776 450.773 48.544 455.296C49.2267 459.819 49.952 464.427 50.72 469.12C51.4027 473.813 52.128 478.293 52.896 482.56C53.5787 486.827 54.176 490.581 54.688 493.824C55.2 497.067 55.584 499.499 55.84 501.12C56.2667 503.168 56.6933 505.088 57.12 506.88C57.4613 508.672 57.9307 510.677 58.528 512.896L40.864 516.352ZM78.496 516.224C78.4107 514.517 78.24 512.384 77.984 509.824C77.6427 507.179 77.344 504.875 77.088 502.912C76.7467 500.608 76.2773 497.536 75.68 493.696C75.0827 489.856 74.4 485.547 73.632 480.768C72.864 475.904 72.096 470.912 71.328 465.792C70.4747 460.672 69.6213 455.68 68.768 450.816C67.9147 445.952 67.1467 441.515 66.464 437.504C65.7813 433.493 65.2267 430.251 64.8 427.776C64.288 425.301 63.776 422.955 63.264 420.736C62.752 418.432 62.24 416.427 61.728 414.72L78.624 411.264C78.7093 412.971 78.9653 415.061 79.392 417.536C79.7333 419.925 80.1173 422.357 80.544 424.832C80.9707 427.563 81.5253 430.976 82.208 435.072C82.8907 439.168 83.6587 443.691 84.512 448.64C85.28 453.504 86.0907 458.496 86.944 463.616C87.712 468.736 88.5227 473.643 89.376 478.336C90.144 483.029 90.8267 487.253 91.424 491.008C92.0213 494.763 92.5333 497.707 92.96 499.84C93.472 502.571 93.9413 505.045 94.368 507.264C94.7947 509.397 95.2213 511.189 95.648 512.64L78.496 516.224ZM26.656 382.208C26.8267 380.501 26.9973 378.496 27.168 376.192C27.3387 373.888 27.424 371.84 27.424 370.048V300.416C27.424 298.453 27.3387 296.405 27.168 294.272C26.9973 292.139 26.8267 290.176 26.656 288.384H44.192C44.0213 290.261 43.8933 292.267 43.808 294.4C43.7227 296.533 43.68 298.539 43.68 300.416V370.048C43.68 371.755 43.7227 373.803 43.808 376.192C43.8933 378.581 44.0213 380.587 44.192 382.208H26.656ZM105.376 345.344H36.512V327.424H105.376V345.344ZM94.88 390.528C95.2213 388.48 95.4773 386.347 95.648 384.128C95.8187 381.909 95.904 379.819 95.904 377.856V293.504C95.904 291.2 95.8187 289.024 95.648 286.976C95.392 284.928 95.136 283.093 94.88 281.472H113.44C113.184 283.349 113.013 285.44 112.928 287.744C112.843 290.048 112.8 291.968 112.8 293.504V377.856C112.8 379.733 112.843 381.781 112.928 384C113.013 386.219 113.184 388.395 113.44 390.528H94.88ZM113.184 207.616C111.904 207.36 110.453 207.147 108.832 206.976C107.125 206.72 105.419 206.592 103.712 206.592C102.773 206.592 100.896 206.592 98.08 206.592C95.264 206.592 91.8507 206.592 87.84 206.592C83.8293 206.592 79.52 206.592 74.912 206.592C70.2187 206.592 65.4827 206.592 60.704 206.592C55.9253 206.592 51.4453 206.592 47.264 206.592C42.9973 206.592 39.2853 206.592 36.128 206.592C32.8853 206.592 30.5387 206.592 29.088 206.592C26.1867 206.592 23.6693 206.763 21.536 207.104C19.4027 207.36 18.2507 207.531 18.08 207.616V188.544C18.2507 188.629 19.4453 188.8 21.664 189.056C23.7973 189.312 26.3147 189.44 29.216 189.44C30.6667 189.44 32.8427 189.44 35.744 189.44C38.56 189.44 41.8453 189.44 45.6 189.44C49.2693 189.44 53.1947 189.44 57.376 189.44C61.5573 189.44 65.696 189.44 69.792 189.44C73.8027 189.44 77.6427 189.44 81.312 189.44C84.896 189.44 87.968 189.44 90.528 189.44C93.088 189.44 94.9653 189.44 96.16 189.44C94.624 185.941 92.5333 182.315 89.888 178.56C87.2427 174.805 84.1707 171.136 80.672 167.552C77.088 163.883 73.248 160.64 69.152 157.824L83.232 147.968C87.84 151.467 92.3627 155.733 96.8 160.768C101.237 165.717 105.291 170.837 108.96 176.128C112.629 181.419 115.701 186.496 118.176 191.36C118.944 192.725 119.627 193.835 120.224 194.688C120.907 195.541 121.504 196.267 122.016 196.864L113.184 207.616ZM111.264 266.88C107.339 261.248 102.603 256.64 97.056 253.056C91.5093 249.472 86.048 246.827 80.672 245.12C77.856 244.181 74.4 243.499 70.304 243.072C66.1227 242.56 61.6853 242.176 56.992 241.92C52.2133 241.664 47.52 241.536 42.912 241.536C38.2187 241.451 33.9093 241.408 29.984 241.408C27.424 241.408 25.248 241.536 23.456 241.792C21.5787 241.963 19.8293 242.219 18.208 242.56V223.744C18.3787 223.829 19.104 223.957 20.384 224.128C21.5787 224.213 23.0293 224.341 24.736 224.512C26.3573 224.597 28.064 224.64 29.856 224.64C33.6107 224.64 38.0053 224.683 43.04 224.768C47.9893 224.853 53.0667 225.024 58.272 225.28C63.4773 225.536 68.4267 225.92 73.12 226.432C77.728 226.944 81.6533 227.627 84.896 228.48C92.1493 230.443 98.8907 233.387 105.12 237.312C111.264 241.152 116.768 245.803 121.632 251.264L111.264 266.88ZM25.248 98.247C25.3333 95.6017 25.4187 93.127 25.504 90.823C25.504 88.4337 25.504 86.3857 25.504 84.679C25.504 83.3137 25.504 81.223 25.504 78.407C25.504 75.5057 25.504 72.135 25.504 68.295C25.504 64.455 25.504 60.359 25.504 56.007C25.504 51.655 25.504 47.303 25.504 42.951C25.504 38.5137 25.504 34.375 25.504 30.535C25.504 26.695 25.504 23.367 25.504 20.551C25.504 17.6497 25.504 15.559 25.504 14.279C25.504 12.6577 25.504 10.7377 25.504 8.519C25.4187 6.215 25.3333 3.911 25.248 1.60699C27.2107 1.69233 29.3013 1.77766 31.52 1.86299C33.6533 1.86299 35.7013 1.86299 37.664 1.86299C38.8587 1.86299 40.736 1.86299 43.296 1.86299C45.7707 1.86299 48.7573 1.86299 52.256 1.86299C55.6693 1.86299 59.3387 1.86299 63.264 1.86299C67.104 1.86299 70.9867 1.86299 74.912 1.86299C78.8373 1.86299 82.5493 1.86299 86.048 1.86299C89.4613 1.86299 92.448 1.86299 95.008 1.86299C97.4827 1.86299 99.2747 1.86299 100.384 1.86299C101.664 1.86299 103.285 1.86299 105.248 1.86299C107.125 1.77766 109.045 1.73499 111.008 1.73499C112.885 1.73499 114.549 1.73499 116 1.73499C117.365 1.64966 118.091 1.60699 118.176 1.60699V19.271C118.005 19.271 116.981 19.271 115.104 19.271C113.141 19.1857 110.837 19.143 108.192 19.143C105.547 19.0577 103.072 19.015 100.768 19.015C99.6587 19.015 97.7813 19.015 95.136 19.015C92.4907 19.015 89.376 19.015 85.792 19.015C82.208 19.015 78.4107 19.015 74.4 19.015C70.3893 19.015 66.464 19.015 62.624 19.015C58.784 19.015 55.2853 19.015 52.128 19.015C48.9707 19.015 46.4533 19.015 44.576 19.015C42.6987 19.015 41.76 19.015 41.76 19.015V80.839C41.76 80.839 42.6987 80.839 44.576 80.839C46.4533 80.839 48.9707 80.839 52.128 80.839C55.2 80.839 58.6987 80.839 62.624 80.839C66.464 80.839 70.3893 80.839 74.4 80.839C78.3253 80.839 82.1227 80.839 85.792 80.839C89.376 80.839 92.4907 80.839 95.136 80.839C97.7813 80.839 99.6587 80.839 100.768 80.839C102.304 80.839 104.053 80.839 106.016 80.839C107.893 80.839 109.728 80.839 111.52 80.839C113.312 80.7537 114.805 80.711 116 80.711C117.28 80.711 118.005 80.711 118.176 80.711V98.375C118.005 98.375 117.28 98.375 116 98.375C114.72 98.2897 113.141 98.247 111.264 98.247C109.387 98.1617 107.467 98.119 105.504 98.119C103.541 98.0337 101.792 97.991 100.256 97.991C99.1467 97.991 97.3547 97.991 94.88 97.991C92.32 97.991 89.2907 97.991 85.792 97.991C82.2933 97.991 78.624 97.991 74.784 97.991C70.8587 97.991 66.9333 97.991 63.008 97.991C59.0827 97.991 55.4133 97.991 52 97.991C48.5013 97.991 45.5147 97.991 43.04 97.991C40.5653 97.991 38.7733 97.991 37.664 97.991C35.872 97.991 33.824 97.991 31.52 97.991C29.1307 97.991 27.04 98.0763 25.248 98.247ZM94.88 12.615H111.264V89.543H94.88V12.615Z"/>
</mask>
<path d="M26.656 766.208C26.8267 764.501 26.9973 762.496 27.168 760.192C27.3387 757.888 27.424 755.84 27.424 754.048V684.416C27.424 682.453 27.3387 680.405 27.168 678.272C26.9973 676.139 26.8267 674.176 26.656 672.384H44.192C44.0213 674.261 43.8933 676.267 43.808 678.4C43.7227 680.533 43.68 682.539 43.68 684.416V754.048C43.68 755.755 43.7227 757.803 43.808 760.192C43.8933 762.581 44.0213 764.587 44.192 766.208H26.656ZM105.376 729.344H36.512V711.424H105.376V729.344ZM94.88 774.528C95.2213 772.48 95.4773 770.347 95.648 768.128C95.8187 765.909 95.904 763.819 95.904 761.856V677.504C95.904 675.2 95.8187 673.024 95.648 670.976C95.392 668.928 95.136 667.093 94.88 665.472H113.44C113.184 667.349 113.013 669.44 112.928 671.744C112.843 674.048 112.8 675.968 112.8 677.504V761.856C112.8 763.733 112.843 765.781 112.928 768C113.013 770.219 113.184 772.395 113.44 774.528H94.88ZM11.296 556.928C12.832 555.819 14.6667 554.667 16.8 553.472C18.9333 552.192 21.0667 550.955 23.2 549.76C25.3333 548.565 27.2107 547.584 28.832 546.816L33.312 557.056C30.6667 558.421 27.68 560.043 24.352 561.92C20.9387 563.712 17.9947 565.461 15.52 567.168L11.296 556.928ZM5.536 541.824C7.15733 540.715 9.07733 539.52 11.296 538.24C13.4293 536.96 15.5627 535.723 17.696 534.528C19.744 533.248 21.4933 532.224 22.944 531.456L27.296 541.696C24.6507 542.976 21.664 544.597 18.336 546.56C15.008 548.437 12.1493 550.229 9.75999 551.936L5.536 541.824ZM101.408 621.696C99.616 621.696 97.056 621.696 93.728 621.696C90.3147 621.696 86.4747 621.696 82.208 621.696C77.9413 621.696 73.4613 621.696 68.768 621.696C63.9893 621.696 59.296 621.696 54.688 621.696C50.08 621.696 45.8133 621.696 41.888 621.696C37.9627 621.696 34.72 621.696 32.16 621.696C30.7093 621.696 29.088 621.739 27.296 621.824C25.504 621.909 23.712 622.037 21.92 622.208C20.128 622.293 18.6347 622.464 17.44 622.72V603.648C19.3173 603.989 21.7067 604.288 24.608 604.544C27.424 604.715 29.9413 604.8 32.16 604.8C34.6347 604.8 37.664 604.8 41.248 604.8C44.7467 604.8 48.544 604.8 52.64 604.8C56.6507 604.8 60.7893 604.8 65.056 604.8C69.2373 604.8 73.3333 604.8 77.344 604.8C81.2693 604.8 84.896 604.8 88.224 604.8C91.552 604.8 94.4533 604.8 96.928 604.8C99.488 604.8 101.579 604.416 103.2 603.648C104.821 602.88 105.973 601.344 106.656 599.04C107.339 596.651 107.68 593.152 107.68 588.544C107.68 584.021 107.509 579.499 107.168 574.976C106.827 570.368 106.315 565.803 105.632 561.28C104.949 556.672 104.224 552.277 103.456 548.096L120.736 548.608C121.248 552.107 121.717 556.075 122.144 560.512C122.571 564.949 122.912 569.557 123.168 574.336C123.424 579.115 123.552 583.808 123.552 588.416C123.552 595.669 123.083 601.515 122.144 605.952C121.291 610.389 119.968 613.76 118.176 616.064C116.384 618.283 114.08 619.776 111.264 620.544C108.448 621.312 105.163 621.696 101.408 621.696ZM45.216 541.184C46.0693 541.696 47.1787 542.379 48.544 543.232C49.824 544 51.0187 544.683 52.128 545.28C54.7733 546.731 57.76 548.48 61.088 550.528C64.416 552.576 67.8293 554.795 71.328 557.184C74.8267 559.573 78.1547 562.048 81.312 564.608C84.4693 567.083 87.1573 569.472 89.376 571.776L81.056 585.856C78.5813 583.04 75.7653 580.309 72.608 577.664C69.3653 574.933 66.208 572.501 63.136 570.368C60.064 568.235 57.4187 566.613 55.2 565.504C55.3707 566.613 55.7973 568.661 56.48 571.648C57.0773 574.635 57.8027 578.261 58.656 582.528C59.5093 586.709 60.448 591.317 61.472 596.352C62.4107 601.387 63.392 606.464 64.416 611.584C65.44 616.704 66.464 621.653 67.488 626.432C68.4267 631.211 69.3227 635.52 70.176 639.36C70.944 643.2 71.584 646.272 72.096 648.576L55.328 651.776C54.9867 649.216 54.5173 645.973 53.92 642.048C53.2373 638.037 52.4693 633.557 51.616 628.608C50.7627 623.573 49.824 618.368 48.8 612.992C47.6907 607.616 46.6667 602.325 45.728 597.12C44.704 591.829 43.7227 586.88 42.784 582.272C41.8453 577.579 41.0347 573.525 40.352 570.112C39.584 566.699 39.0293 564.181 38.688 562.56C38.176 560.683 37.7067 558.976 37.28 557.44C36.8533 555.904 36.2987 554.581 35.616 553.472L45.216 541.184ZM24.608 481.408C22.7307 481.749 21.024 482.176 19.488 482.688C17.952 483.115 16.416 483.541 14.88 483.968L11.936 465.92C13.216 465.749 14.8373 465.579 16.8 465.408C18.6773 465.152 20.384 464.853 21.92 464.512C23.1147 464.341 25.3333 463.957 28.576 463.36C31.8187 462.763 35.744 462.037 40.352 461.184C44.96 460.331 49.952 459.392 55.328 458.368C60.6187 457.259 65.9947 456.192 71.456 455.168C76.832 454.144 81.952 453.163 86.816 452.224C91.68 451.2 95.9893 450.347 99.744 449.664C103.499 448.896 106.272 448.341 108.064 448C109.941 447.573 111.989 447.061 114.208 446.464C116.427 445.867 118.56 445.269 120.608 444.672L123.936 463.232C121.547 463.573 119.243 463.829 117.024 464C114.891 464.171 112.885 464.469 111.008 464.896C109.301 465.237 106.699 465.749 103.2 466.432C99.616 467.029 95.4347 467.797 90.656 468.736C85.8773 469.589 80.8 470.528 75.424 471.552C70.048 472.576 64.672 473.6 59.296 474.624C53.92 475.648 48.8853 476.629 44.192 477.568C39.4987 478.421 35.4453 479.189 32.032 479.872C28.5333 480.555 26.0587 481.067 24.608 481.408ZM40.864 516.352C40.7787 514.304 40.6933 512.299 40.608 510.336C40.4373 508.373 40.224 506.411 39.968 504.448C39.712 502.571 39.3707 499.925 38.944 496.512C38.432 493.099 37.8773 489.173 37.28 484.736C36.5973 480.299 35.872 475.733 35.104 471.04C34.336 466.261 33.6107 461.653 32.928 457.216C32.16 452.779 31.4773 448.853 30.88 445.44C30.2827 441.941 29.8133 439.211 29.472 437.248C29.0453 435.2 28.6187 433.067 28.192 430.848C27.68 428.629 27.2107 426.752 26.784 425.216L43.552 422.144C43.6373 423.509 43.8507 425.344 44.192 427.648C44.5333 429.952 44.832 432.043 45.088 433.92C45.4293 436.224 45.8987 439.253 46.496 443.008C47.0933 446.677 47.776 450.773 48.544 455.296C49.2267 459.819 49.952 464.427 50.72 469.12C51.4027 473.813 52.128 478.293 52.896 482.56C53.5787 486.827 54.176 490.581 54.688 493.824C55.2 497.067 55.584 499.499 55.84 501.12C56.2667 503.168 56.6933 505.088 57.12 506.88C57.4613 508.672 57.9307 510.677 58.528 512.896L40.864 516.352ZM78.496 516.224C78.4107 514.517 78.24 512.384 77.984 509.824C77.6427 507.179 77.344 504.875 77.088 502.912C76.7467 500.608 76.2773 497.536 75.68 493.696C75.0827 489.856 74.4 485.547 73.632 480.768C72.864 475.904 72.096 470.912 71.328 465.792C70.4747 460.672 69.6213 455.68 68.768 450.816C67.9147 445.952 67.1467 441.515 66.464 437.504C65.7813 433.493 65.2267 430.251 64.8 427.776C64.288 425.301 63.776 422.955 63.264 420.736C62.752 418.432 62.24 416.427 61.728 414.72L78.624 411.264C78.7093 412.971 78.9653 415.061 79.392 417.536C79.7333 419.925 80.1173 422.357 80.544 424.832C80.9707 427.563 81.5253 430.976 82.208 435.072C82.8907 439.168 83.6587 443.691 84.512 448.64C85.28 453.504 86.0907 458.496 86.944 463.616C87.712 468.736 88.5227 473.643 89.376 478.336C90.144 483.029 90.8267 487.253 91.424 491.008C92.0213 494.763 92.5333 497.707 92.96 499.84C93.472 502.571 93.9413 505.045 94.368 507.264C94.7947 509.397 95.2213 511.189 95.648 512.64L78.496 516.224ZM26.656 382.208C26.8267 380.501 26.9973 378.496 27.168 376.192C27.3387 373.888 27.424 371.84 27.424 370.048V300.416C27.424 298.453 27.3387 296.405 27.168 294.272C26.9973 292.139 26.8267 290.176 26.656 288.384H44.192C44.0213 290.261 43.8933 292.267 43.808 294.4C43.7227 296.533 43.68 298.539 43.68 300.416V370.048C43.68 371.755 43.7227 373.803 43.808 376.192C43.8933 378.581 44.0213 380.587 44.192 382.208H26.656ZM105.376 345.344H36.512V327.424H105.376V345.344ZM94.88 390.528C95.2213 388.48 95.4773 386.347 95.648 384.128C95.8187 381.909 95.904 379.819 95.904 377.856V293.504C95.904 291.2 95.8187 289.024 95.648 286.976C95.392 284.928 95.136 283.093 94.88 281.472H113.44C113.184 283.349 113.013 285.44 112.928 287.744C112.843 290.048 112.8 291.968 112.8 293.504V377.856C112.8 379.733 112.843 381.781 112.928 384C113.013 386.219 113.184 388.395 113.44 390.528H94.88ZM113.184 207.616C111.904 207.36 110.453 207.147 108.832 206.976C107.125 206.72 105.419 206.592 103.712 206.592C102.773 206.592 100.896 206.592 98.08 206.592C95.264 206.592 91.8507 206.592 87.84 206.592C83.8293 206.592 79.52 206.592 74.912 206.592C70.2187 206.592 65.4827 206.592 60.704 206.592C55.9253 206.592 51.4453 206.592 47.264 206.592C42.9973 206.592 39.2853 206.592 36.128 206.592C32.8853 206.592 30.5387 206.592 29.088 206.592C26.1867 206.592 23.6693 206.763 21.536 207.104C19.4027 207.36 18.2507 207.531 18.08 207.616V188.544C18.2507 188.629 19.4453 188.8 21.664 189.056C23.7973 189.312 26.3147 189.44 29.216 189.44C30.6667 189.44 32.8427 189.44 35.744 189.44C38.56 189.44 41.8453 189.44 45.6 189.44C49.2693 189.44 53.1947 189.44 57.376 189.44C61.5573 189.44 65.696 189.44 69.792 189.44C73.8027 189.44 77.6427 189.44 81.312 189.44C84.896 189.44 87.968 189.44 90.528 189.44C93.088 189.44 94.9653 189.44 96.16 189.44C94.624 185.941 92.5333 182.315 89.888 178.56C87.2427 174.805 84.1707 171.136 80.672 167.552C77.088 163.883 73.248 160.64 69.152 157.824L83.232 147.968C87.84 151.467 92.3627 155.733 96.8 160.768C101.237 165.717 105.291 170.837 108.96 176.128C112.629 181.419 115.701 186.496 118.176 191.36C118.944 192.725 119.627 193.835 120.224 194.688C120.907 195.541 121.504 196.267 122.016 196.864L113.184 207.616ZM111.264 266.88C107.339 261.248 102.603 256.64 97.056 253.056C91.5093 249.472 86.048 246.827 80.672 245.12C77.856 244.181 74.4 243.499 70.304 243.072C66.1227 242.56 61.6853 242.176 56.992 241.92C52.2133 241.664 47.52 241.536 42.912 241.536C38.2187 241.451 33.9093 241.408 29.984 241.408C27.424 241.408 25.248 241.536 23.456 241.792C21.5787 241.963 19.8293 242.219 18.208 242.56V223.744C18.3787 223.829 19.104 223.957 20.384 224.128C21.5787 224.213 23.0293 224.341 24.736 224.512C26.3573 224.597 28.064 224.64 29.856 224.64C33.6107 224.64 38.0053 224.683 43.04 224.768C47.9893 224.853 53.0667 225.024 58.272 225.28C63.4773 225.536 68.4267 225.92 73.12 226.432C77.728 226.944 81.6533 227.627 84.896 228.48C92.1493 230.443 98.8907 233.387 105.12 237.312C111.264 241.152 116.768 245.803 121.632 251.264L111.264 266.88ZM25.248 98.247C25.3333 95.6017 25.4187 93.127 25.504 90.823C25.504 88.4337 25.504 86.3857 25.504 84.679C25.504 83.3137 25.504 81.223 25.504 78.407C25.504 75.5057 25.504 72.135 25.504 68.295C25.504 64.455 25.504 60.359 25.504 56.007C25.504 51.655 25.504 47.303 25.504 42.951C25.504 38.5137 25.504 34.375 25.504 30.535C25.504 26.695 25.504 23.367 25.504 20.551C25.504 17.6497 25.504 15.559 25.504 14.279C25.504 12.6577 25.504 10.7377 25.504 8.519C25.4187 6.215 25.3333 3.911 25.248 1.60699C27.2107 1.69233 29.3013 1.77766 31.52 1.86299C33.6533 1.86299 35.7013 1.86299 37.664 1.86299C38.8587 1.86299 40.736 1.86299 43.296 1.86299C45.7707 1.86299 48.7573 1.86299 52.256 1.86299C55.6693 1.86299 59.3387 1.86299 63.264 1.86299C67.104 1.86299 70.9867 1.86299 74.912 1.86299C78.8373 1.86299 82.5493 1.86299 86.048 1.86299C89.4613 1.86299 92.448 1.86299 95.008 1.86299C97.4827 1.86299 99.2747 1.86299 100.384 1.86299C101.664 1.86299 103.285 1.86299 105.248 1.86299C107.125 1.77766 109.045 1.73499 111.008 1.73499C112.885 1.73499 114.549 1.73499 116 1.73499C117.365 1.64966 118.091 1.60699 118.176 1.60699V19.271C118.005 19.271 116.981 19.271 115.104 19.271C113.141 19.1857 110.837 19.143 108.192 19.143C105.547 19.0577 103.072 19.015 100.768 19.015C99.6587 19.015 97.7813 19.015 95.136 19.015C92.4907 19.015 89.376 19.015 85.792 19.015C82.208 19.015 78.4107 19.015 74.4 19.015C70.3893 19.015 66.464 19.015 62.624 19.015C58.784 19.015 55.2853 19.015 52.128 19.015C48.9707 19.015 46.4533 19.015 44.576 19.015C42.6987 19.015 41.76 19.015 41.76 19.015V80.839C41.76 80.839 42.6987 80.839 44.576 80.839C46.4533 80.839 48.9707 80.839 52.128 80.839C55.2 80.839 58.6987 80.839 62.624 80.839C66.464 80.839 70.3893 80.839 74.4 80.839C78.3253 80.839 82.1227 80.839 85.792 80.839C89.376 80.839 92.4907 80.839 95.136 80.839C97.7813 80.839 99.6587 80.839 100.768 80.839C102.304 80.839 104.053 80.839 106.016 80.839C107.893 80.839 109.728 80.839 111.52 80.839C113.312 80.7537 114.805 80.711 116 80.711C117.28 80.711 118.005 80.711 118.176 80.711V98.375C118.005 98.375 117.28 98.375 116 98.375C114.72 98.2897 113.141 98.247 111.264 98.247C109.387 98.1617 107.467 98.119 105.504 98.119C103.541 98.0337 101.792 97.991 100.256 97.991C99.1467 97.991 97.3547 97.991 94.88 97.991C92.32 97.991 89.2907 97.991 85.792 97.991C82.2933 97.991 78.624 97.991 74.784 97.991C70.8587 97.991 66.9333 97.991 63.008 97.991C59.0827 97.991 55.4133 97.991 52 97.991C48.5013 97.991 45.5147 97.991 43.04 97.991C40.5653 97.991 38.7733 97.991 37.664 97.991C35.872 97.991 33.824 97.991 31.52 97.991C29.1307 97.991 27.04 98.0763 25.248 98.247ZM94.88 12.615H111.264V89.543H94.88V12.615Z"/>
    </symbol>
  </defs>
</svg>